<svg xmlns="http://www.w3.org/2000/svg" viewBox="0 0 640 400"><rect width="640" height="400" fill="#dff8fb"/><path d="M0 130c120 55 230-40 365 10 100 38 165 18 275-35v295H0z" fill="#0b7fab"/><path d="M0 205c120-42 235 55 390 0 110-40 170-18 250 20v175H0z" fill="#082143" opacity=".78"/><g fill="none" stroke="#fff" stroke-width="7" opacity=".8" stroke-linecap="round"><path d="M75 105c95-50 185-52 280-8"/><path d="M100 150c130-38 250-34 370 15"/><path d="M84 202c140-34 285-25 430 24"/></g><circle cx="485" cy="90" r="52" fill="#f1c66d" opacity=".9"/></svg>
